HIERARCHY
ROOT Hips
{
  OFFSET 0.000000 0.000000 0.000000
  CHANNELS 6 Xposition Yposition Zposition Zrotation Yrotation Xrotation
  JOINT Spine
  {
    OFFSET -0.000883 2.120903 -0.028059
    CHANNELS 3 Zrotation Yrotation Xrotation
    JOINT Spine1
    {
      OFFSET -0.002865 2.096658 0.129739
      CHANNELS 3 Zrotation Yrotation Xrotation
      JOINT Spine2
      {
        OFFSET -0.000072 2.101496 0.140380
        CHANNELS 3 Zrotation Yrotation Xrotation
        JOINT Neck
        {
          OFFSET 0.073278 1.835262 0.072900
          CHANNELS 3 Zrotation Yrotation Xrotation
          JOINT Head
          {
            OFFSET -0.033980 1.851628 -0.175733
            CHANNELS 3 Zrotation Yrotation Xrotation
            End Site
            {
              OFFSET 0 0 0
            }
          }
        }
        JOINT LeftShoulder
        {
          OFFSET 3.021134 1.180177 0.406022
          CHANNELS 3 Zrotation Yrotation Xrotation
          JOINT LeftArm
          {
            OFFSET 4.585380 -0.000000 -0.000000
            CHANNELS 3 Zrotation Yrotation Xrotation
            JOINT LeftForeArm
            {
              OFFSET 2.689350 -0.000000 -0.000000
              CHANNELS 3 Zrotation Yrotation Xrotation
              JOINT LeftHand
              {
                OFFSET 0.585058 -0.000000 -0.000000
                CHANNELS 3 Zrotation Yrotation Xrotation
                JOINT LeftHandIndex1
                {
                  OFFSET 0.471689 -0.000000 -0.000000
                  CHANNELS 3 Zrotation Yrotation Xrotation
                  End Site
                  {
                    OFFSET 0 0 0
                  }
                }
              }
            }
          }
        }
        JOINT RightShoulder
        {
          OFFSET -2.950738 1.188427 0.314298
          CHANNELS 3 Zrotation Yrotation Xrotation
          JOINT RightArm
          {
            OFFSET -4.474500 -0.000000 -0.000000
            CHANNELS 3 Zrotation Yrotation Xrotation
            JOINT RightForeArm
            {
              OFFSET -2.938960 -0.000000 -0.000000
              CHANNELS 3 Zrotation Yrotation Xrotation
              JOINT RightHand
              {
                OFFSET -0.405092 -0.000000 -0.000000
                CHANNELS 3 Zrotation Yrotation Xrotation
                JOINT RightHandIndex1
                {
                  OFFSET -0.326596 -0.000000 -0.000000
                  CHANNELS 3 Zrotation Yrotation Xrotation
                  End Site
                  {
                    OFFSET 0 0 0
                  }
                }
              }
            }
          }
        }
      }
    }
  }
  JOINT LeftUpLeg
  {
    OFFSET 2.251771 -6.186694 0.000000
    CHANNELS 3 Zrotation Yrotation Xrotation
    JOINT LeftLeg
    {
      OFFSET 2.266012 -6.225823 0.000000
      CHANNELS 3 Zrotation Yrotation Xrotation
      JOINT LeftFoot
      {
        OFFSET 0.237014 -0.651191 2.158476
        CHANNELS 3 Zrotation Yrotation Xrotation
        JOINT LeftToeBase
        {
          OFFSET 0.000000 -0.000000 1.129490
          CHANNELS 3 Zrotation Yrotation Xrotation
          End Site
          {
            OFFSET 0 0 0
          }
        }
      }
    }
  }
  JOINT RightUpLeg
  {
    OFFSET -2.280357 -6.265234 0.000000
    CHANNELS 3 Zrotation Yrotation Xrotation
    JOINT RightLeg
    {
      OFFSET -2.254897 -6.195283 0.000000
      CHANNELS 3 Zrotation Yrotation Xrotation
      JOINT RightFoot
      {
        OFFSET -0.283752 -0.779600 2.231370
        CHANNELS 3 Zrotation Yrotation Xrotation
        JOINT RightToeBase
        {
          OFFSET -0.000000 -0.000000 1.178990
          CHANNELS 3 Zrotation Yrotation Xrotation
          End Site
          {
            OFFSET 0 0 0
          }
        }
      }
    }
  }
}
MOTION
Frames: 15
Frame Time: 0.00833333
0.512775 15.565500 8.052140 -0.040640 9.060790 19.063300 -8.722460 -8.936830 -14.197200 0.000000 0.000000 15.114800 16.971000 0.000000 -15.525100 0.000000 0.000000 -15.210100 -1.674810 3.986580 -38.798300 0.000000 0.000000 23.894700 -26.456400 0.000000 7.817320 0.000000 0.000000 -1.558170 1.046860 0.194915 3.884870 0.762057 0.386600 -4.352750 0.170337 0.162554 -6.710420 8.424870 1.159690 -12.997800 -2.690950 0.401695 6.626300 0.000000 0.000000 0.000000 88.509000 -40.719900 -23.200900 0.000000 0.000000 93.161100 10.852600 0.000000 -11.776500 0.000000 0.000000 7.125020 0.000000 0.000000 0.000000 -83.499200 26.984300 -29.137900 0.000000 0.000000 64.758100 -10.424300 0.000000 -8.768290 0.000000 0.000000 7.125020
0.619958 15.585000 7.996010 -0.053353 8.583540 18.939200 -9.299400 -8.830330 -14.175400 0.000000 0.000000 15.275800 17.106600 0.000000 -15.582200 0.000000 0.000000 -14.701400 -2.390250 5.169990 -38.320900 0.000000 0.000000 23.020800 -27.559500 0.000000 7.274050 0.000000 0.000000 -0.541764 0.896265 0.204137 3.634460 0.786705 0.386925 -4.420310 0.281257 0.170983 -6.638320 8.585150 1.255400 -12.859800 -2.720460 0.472464 6.716160 0.000000 0.000000 0.000000 88.764700 -40.309500 -24.118400 0.000000 0.000000 91.527500 10.702100 0.000000 -11.551400 0.000000 0.000000 7.125020 0.000000 0.000000 0.000000 -83.900900 26.453100 -30.151500 0.000000 0.000000 64.872700 -10.170400 0.000000 -8.397910 0.000000 0.000000 7.125020
0.721188 15.601700 7.941220 -0.056253 8.170040 18.793300 -9.846970 -8.763550 -14.204800 0.000000 0.000000 15.538400 17.246200 0.000000 -15.677900 0.000000 0.000000 -14.177200 -2.879990 6.098810 -37.851100 0.000000 0.000000 22.438700 -28.127000 0.000000 6.373910 0.000000 0.000000 -0.068286 0.745513 0.200059 3.421140 0.809194 0.370367 -4.481610 0.391404 0.170928 -6.581060 8.721880 1.339220 -12.730600 -2.739310 0.536317 6.805110 0.000000 0.000000 0.000000 89.028000 -39.965400 -25.024600 0.000000 0.000000 89.906700 10.682000 0.000000 -11.336600 0.000000 0.000000 7.125020 0.000000 0.000000 0.000000 -84.303700 25.885500 -31.156300 0.000000 0.000000 64.941000 -9.900610 0.000000 -8.074730 0.000000 0.000000 7.125020
0.816873 15.616400 7.887310 -0.063168 7.822870 18.634800 -10.346200 -8.747930 -14.285400 0.000000 0.000000 15.874800 17.393800 0.000000 -15.792500 0.000000 0.000000 -13.644900 -3.085130 6.695680 -37.387600 0.000000 0.000000 22.138600 -28.071200 0.000000 5.315990 0.000000 0.000000 -0.131205 0.607723 0.179684 3.231240 0.837296 0.333868 -4.535790 0.501729 0.160475 -6.529650 8.841950 1.417630 -12.624700 -2.753150 0.596399 6.898280 -0.000000 -0.000000 0.000000 89.298500 -39.666900 -25.912100 0.000000 0.000000 88.314100 10.755600 0.000000 -11.134800 0.000000 0.000000 7.125020 -0.000000 -0.000000 0.000000 -84.704100 25.292800 -32.146700 0.000000 0.000000 64.961500 -9.600710 0.000000 -7.825390 0.000000 0.000000 7.125020
0.907632 15.629300 7.834720 -0.094006 7.527320 18.426600 -10.788200 -8.777900 -14.355500 0.000000 0.000000 16.265800 17.555800 0.000000 -15.922200 0.000000 0.000000 -13.148800 -2.969320 6.960560 -36.878800 0.000000 0.000000 22.084900 -27.421400 0.000000 4.212410 0.000000 0.000000 -0.546860 0.502142 0.147574 3.096990 0.875560 0.285057 -4.572820 0.605356 0.142555 -6.491870 8.941670 1.490660 -12.529300 -2.761030 0.653269 6.991190 -0.000000 0.000000 0.000000 89.588400 -39.397100 -26.795300 0.000000 0.000000 86.748000 10.862400 0.000000 -10.989700 0.000000 0.000000 7.125020 -0.000000 0.000000 0.000000 -85.101200 24.679000 -33.122400 0.000000 0.000000 64.933600 -9.289930 0.000000 -7.641420 0.000000 0.000000 7.125020
0.994115 15.640500 7.783400 -0.161470 7.241790 18.178900 -11.171400 -8.834000 -14.406600 0.000000 0.000000 16.696000 17.749400 0.000000 -16.062400 0.000000 0.000000 -12.676600 -2.543690 6.919300 -36.345700 0.000000 0.000000 22.240200 -26.284100 0.000000 3.144150 0.000000 0.000000 -1.179100 0.428066 0.114011 3.003630 0.926067 0.237388 -4.594030 0.703744 0.123934 -6.460670 9.035070 1.566120 -12.453400 -2.769350 0.711124 7.088740 -0.000000 -0.000000 0.000000 89.890700 -39.133900 -27.670100 0.000000 0.000000 85.196700 10.976100 0.000000 -10.896200 0.000000 0.000000 7.125020 -0.000000 -0.000000 0.000000 -85.496700 24.056800 -34.079000 0.000000 0.000000 64.853600 -8.991780 0.000000 -7.504600 0.000000 0.000000 7.125020
1.076930 15.650000 7.733370 -0.266976 6.944440 17.891000 -11.503700 -8.901310 -14.419700 0.000000 0.000000 17.148400 17.978200 0.000000 -16.216500 0.000000 0.000000 -12.219500 -1.841600 6.608310 -35.788700 0.000000 0.000000 22.571400 -24.784700 0.000000 2.083510 0.000000 0.000000 -1.869110 0.388384 0.086008 2.947780 0.984833 0.199971 -4.596020 0.790408 0.108868 -6.430620 9.127910 1.644070 -12.393600 -2.780660 0.769779 7.188320 0.000000 -0.000000 0.000000 90.198500 -38.854100 -28.528600 0.000000 0.000000 83.641800 11.074100 0.000000 -10.834700 0.000000 0.000000 7.125020 0.000000 -0.000000 0.000000 -85.885900 23.404100 -35.010500 0.000000 0.000000 64.727200 -8.735480 0.000000 -7.379580 0.000000 0.000000 7.125020
1.156180 15.657700 7.683790 -0.398220 6.624130 17.574900 -11.798300 -8.979830 -14.403400 0.000000 0.000000 17.617800 18.244500 0.000000 -16.386600 0.000000 0.000000 -11.755900 -0.919565 6.063060 -35.222100 0.000000 0.000000 23.055200 -23.072300 0.000000 0.961026 0.000000 0.000000 -2.509660 0.373179 0.067573 2.886730 1.045840 0.176516 -4.564050 0.864294 0.099458 -6.361560 9.214450 1.723090 -12.325700 -2.790950 0.829091 7.275660 0.000000 -0.000000 0.000000 90.491600 -38.550300 -29.341900 0.000000 0.000000 82.069000 11.154000 0.000000 -10.797400 0.000000 0.000000 7.125020 0.000000 -0.000000 0.000000 -86.251700 22.707300 -35.882500 0.000000 0.000000 64.551100 -8.542280 0.000000 -7.235490 0.000000 0.000000 7.125020
1.232730 15.663500 7.635690 -0.548883 6.277940 17.227100 -12.068400 -9.062640 -14.340100 0.000000 0.000000 18.093400 18.540600 0.000000 -16.582400 0.000000 0.000000 -11.280500 0.173103 5.325340 -34.639300 0.000000 0.000000 23.679100 -21.270000 0.000000 -0.241458 0.000000 0.000000 -3.136090 0.383268 0.055875 2.866090 1.104300 0.163697 -4.521640 0.920379 0.093970 -6.304810 9.310690 1.804690 -12.260800 -2.806560 0.889627 7.362730 0.000000 -0.000000 0.000000 90.778400 -38.198200 -30.151500 0.000000 0.000000 80.477200 11.238100 0.000000 -10.708500 0.000000 0.000000 7.125020 0.000000 -0.000000 0.000000 -86.607200 21.961700 -36.731600 0.000000 0.000000 64.334000 -8.411720 0.000000 -7.038330 0.000000 0.000000 7.125020
1.306540 15.667600 7.588360 -0.700130 5.900970 16.879400 -12.329000 -9.146240 -14.262000 0.000000 0.000000 18.567500 18.857200 0.000000 -16.806200 0.000000 0.000000 -10.758000 1.361620 4.437300 -34.080300 0.000000 0.000000 24.437800 -19.461500 0.000000 -1.525590 0.000000 0.000000 -3.799980 0.402095 0.052751 2.854930 1.151750 0.162245 -4.472950 0.959108 0.093367 -6.246960 9.421650 1.888570 -12.204400 -2.828290 0.950718 7.449890 0.000000 -0.000000 0.000000 91.049800 -37.800700 -30.952200 0.000000 0.000000 78.876700 11.337400 0.000000 -10.562900 0.000000 0.000000 7.125020 0.000000 -0.000000 0.000000 -86.943200 21.153500 -37.539300 0.000000 0.000000 64.067900 -8.327060 0.000000 -6.796260 0.000000 0.000000 7.125020
1.377570 15.670400 7.541640 -0.840688 5.497710 16.546400 -12.590400 -9.213510 -14.182100 0.000000 0.000000 19.033100 19.175100 0.000000 -17.047700 0.000000 0.000000 -10.222200 2.580130 3.463580 -33.561000 0.000000 0.000000 25.322900 -17.722400 0.000000 -2.868050 0.000000 0.000000 -4.580180 0.421558 0.056851 2.860450 1.182800 0.169837 -4.430300 0.979704 0.096803 -6.205210 9.539410 1.972300 -12.157800 -2.850360 1.011070 7.538770 0.000000 0.000000 0.000000 91.307600 -37.364500 -31.763200 0.000000 0.000000 77.292700 11.460500 0.000000 -10.343600 0.000000 0.000000 7.125020 0.000000 0.000000 0.000000 -87.260500 20.280600 -38.305800 0.000000 0.000000 63.742600 -8.273200 0.000000 -6.515430 0.000000 0.000000 7.125020
1.446050 15.672100 7.495370 -0.961563 5.073240 16.263200 -12.854800 -9.267950 -14.143100 0.000000 0.000000 19.489200 19.487700 0.000000 -17.304800 0.000000 0.000000 -9.646600 3.777500 2.447630 -33.117400 0.000000 0.000000 26.321400 -16.105600 0.000000 -4.223810 0.000000 0.000000 -5.495220 0.433775 0.063834 2.853480 1.196190 0.179999 -4.406800 0.985845 0.101440 -6.176510 9.678390 2.060580 -12.128800 -2.878670 1.073130 7.634340 0.000000 0.000000 0.000000 91.555000 -36.883500 -32.600100 0.000000 0.000000 75.756000 11.601000 0.000000 -10.070800 0.000000 0.000000 7.125020 0.000000 0.000000 0.000000 -87.559700 19.355200 -39.027000 0.000000 0.000000 63.345100 -8.215260 0.000000 -6.229210 0.000000 0.000000 7.125020
1.511870 15.673100 7.449790 -1.069370 4.625050 16.024400 -13.118600 -9.290050 -14.137200 0.000000 0.000000 19.936400 19.787600 0.000000 -17.572500 0.000000 0.000000 -9.088410 4.936810 1.441060 -32.736600 0.000000 0.000000 27.414100 -14.632500 0.000000 -5.560800 0.000000 0.000000 -6.520220 0.444734 0.075834 2.832620 1.193030 0.195963 -4.399680 0.975071 0.108622 -6.157130 9.825630 2.151850 -12.110600 -2.906930 1.136540 7.734150 -0.000000 0.000000 0.000000 91.793500 -36.360300 -33.467200 0.000000 0.000000 74.294400 11.737400 0.000000 -9.775810 0.000000 0.000000 7.125020 -0.000000 0.000000 0.000000 -87.839400 18.383400 -39.697400 0.000000 0.000000 62.862500 -8.109980 0.000000 -5.972830 0.000000 0.000000 7.125020
1.575000 15.673700 7.405270 -1.172540 4.147170 15.834300 -13.372800 -9.281330 -14.171300 0.000000 0.000000 20.379100 20.082800 0.000000 -17.850500 0.000000 0.000000 -8.539580 6.049160 0.486392 -32.419700 0.000000 0.000000 28.580700 -13.308000 0.000000 -6.848180 0.000000 0.000000 -7.591440 0.458714 0.096107 2.772430 1.176080 0.222074 -4.400410 0.947449 0.120343 -6.123440 9.978520 2.246930 -12.103900 -2.933940 1.201650 7.835430 -0.000000 -0.000000 0.000000 92.014900 -35.800100 -34.347900 0.000000 0.000000 72.921600 11.852900 0.000000 -9.485670 0.000000 0.000000 7.125020 -0.000000 -0.000000 0.000000 -88.096800 17.378900 -40.299200 0.000000 0.000000 62.288000 -7.949710 0.000000 -5.781100 0.000000 0.000000 7.125020
1.635470 15.673900 7.362360 -1.279180 3.642610 15.685600 -13.609400 -9.246920 -14.255100 0.000000 0.000000 20.853500 20.378300 0.000000 -18.159600 0.000000 0.000000 -8.002970 7.119150 -0.398718 -32.161500 0.000000 0.000000 29.825900 -12.121300 0.000000 -8.087570 0.000000 0.000000 -8.666020 0.482674 0.123827 2.684220 1.149130 0.258042 -4.415080 0.903156 0.136262 -6.088360 10.139400 2.346340 -12.103400 -2.961680 1.269230 7.939930 0.000000 0.000000 0.000000 92.226000 -35.194400 -35.251200 0.000000 0.000000 71.634700 11.940500 0.000000 -9.202470 0.000000 0.000000 7.125020 0.000000 0.000000 0.000000 -88.340200 16.356300 -40.851000 0.000000 0.000000 61.624400 -7.725310 0.000000 -5.684980 0.000000 0.000000 7.125020
